HIERARCHY
ROOT Hips
{
	OFFSET 173.408295 91.952423 -518.280273
	CHANNELS 6 Xposition Yposition Zposition Zrotation Yrotation Xrotation 
	JOINT LeftUpLeg
	{
		OFFSET 0.103459 1.857827 10.548504
		CHANNELS 3 Zrotation Yrotation Xrotation
		JOINT LeftLeg
		{
			OFFSET 43.500008 0.000000 0.000004
			CHANNELS 3 Zrotation Yrotation Xrotation
			JOINT LeftFoot
			{
				OFFSET 42.372192 0.000011 0.000000
				CHANNELS 3 Zrotation Yrotation Xrotation
				JOINT LeftToe
				{
					OFFSET 17.299973 -0.000013 -0.000010
					CHANNELS 3 Zrotation Yrotation Xrotation
					End Site
					{
						OFFSET 0.000000 0.000000 0.000000
					}
				}
			}
		}
	}
	JOINT RightUpLeg
	{
		OFFSET 0.103454 1.857830 -10.548500
		CHANNELS 3 Zrotation Yrotation Xrotation
		JOINT RightLeg
		{
			OFFSET 43.500038 -0.000038 0.000004
			CHANNELS 3 Zrotation Yrotation Xrotation
			JOINT RightFoot
			{
				OFFSET 42.372253 0.000019 0.000024
				CHANNELS 3 Zrotation Yrotation Xrotation
				JOINT RightToe
				{
					OFFSET 17.299988 -0.000007 0.000004
					CHANNELS 3 Zrotation Yrotation Xrotation
					End Site
					{
						OFFSET 0.000000 0.000000 0.000000
					}
				}
			}
		}
	}
	JOINT Spine
	{
		OFFSET 6.901963 -2.603744 0.000004
		CHANNELS 3 Zrotation Yrotation Xrotation
		JOINT Spine1
		{
			OFFSET 12.588104 0.000008 -0.000010
			CHANNELS 3 Zrotation Yrotation Xrotation
			JOINT Spine2
			{
				OFFSET 12.343202 -0.000005 0.000010
				CHANNELS 3 Zrotation Yrotation Xrotation
				JOINT Neck
				{
					OFFSET 25.832897 0.000000 0.000001
					CHANNELS 3 Zrotation Yrotation Xrotation
					JOINT Head
					{
						OFFSET 11.766611 -0.000006 -0.000000
						CHANNELS 3 Zrotation Yrotation Xrotation
						End Site
						{
							OFFSET 0.000000 0.000000 0.000000
						}
					}
				}
				JOINT LeftShoulder
				{
					OFFSET 19.745899 -1.480366 6.000108
					CHANNELS 3 Zrotation Yrotation Xrotation
					JOINT LeftArm
					{
						OFFSET 11.284111 -0.000018 -0.000015
						CHANNELS 3 Zrotation Yrotation Xrotation
						JOINT LeftForeArm
						{
							OFFSET 33.000050 -0.000005 0.000028
							CHANNELS 3 Zrotation Yrotation Xrotation
							JOINT LeftHand
							{
								OFFSET 25.200012 0.000000 0.000002
								CHANNELS 3 Zrotation Yrotation Xrotation
								End Site
								{
									OFFSET 0.000000 0.000000 0.000000
								}
							}
						}
					}
				}
				JOINT RightShoulder
				{
					OFFSET 19.746111 -1.480335 -6.000074
					CHANNELS 3 Zrotation Yrotation Xrotation
					JOINT RightArm
					{
						OFFSET 11.284151 0.000036 0.000001
						CHANNELS 3 Zrotation Yrotation Xrotation
						JOINT RightForeArm
						{
							OFFSET 33.000092 -0.000035 0.000022
							CHANNELS 3 Zrotation Yrotation Xrotation
							JOINT RightHand
							{
								OFFSET 25.199768 0.000178 0.000417
								CHANNELS 3 Zrotation Yrotation Xrotation
								End Site
								{
									OFFSET 0.000000 0.000000 0.000000
								}
							}
						}
					}
				}
			}
		}
	}
}
MOTION
Frames: 7
Frame Time: 0.033333
168.608093 93.259819 -44.533260 87.034403 3.056350 83.555016 168.819682 -3.309400 179.514242 -17.653406 0.720894 4.188915 66.517676 -2.433981 1.562946 21.454557 0.003093 -0.000001 -174.397652 -1.880296 -179.574266 -20.329768 4.624761 -1.876094 73.166926 2.454398 3.917864 21.454557 -0.003118 -0.000017 6.142816 0.446453 1.302857 2.282766 0.867759 2.614104 1.964978 0.883665 2.608819 20.803286 19.571303 24.920773 7.291827 -44.298534 31.031684 179.851489 -77.277594 -1.363585 -9.618540 61.098931 36.608024 -30.676203 -9.352453 0.876712 -0.392656 -7.606129 18.302301 -159.958809 76.306511 21.927834 -10.690758 -61.677872 -34.300606 -36.939087 14.977403 -1.406615 2.347146 8.909925 -9.621736 
168.900208 93.322746 -43.406590 87.254465 2.988179 83.207441 169.562301 -2.882005 179.534268 -17.575818 0.616155 3.851706 67.116342 -2.138484 1.702780 21.454553 0.003094 -0.000001 -174.077398 -1.296202 -179.511524 -20.692157 4.474562 -2.203401 72.827370 2.942153 4.641786 21.454558 -0.003105 -0.000016 6.145604 0.366822 1.332464 2.286686 0.707918 2.671796 1.968938 0.724169 2.667463 22.016150 18.817569 26.996026 5.527342 -45.594013 33.896972 179.887198 -77.107891 -1.397024 -11.973287 60.489180 35.012502 -31.686228 -9.700251 0.919434 -0.608204 -7.941355 18.865606 -160.985988 76.640795 20.874443 -8.417369 -61.680973 -36.984463 -36.782413 14.726798 -1.386552 2.000996 8.580739 -9.793019 
169.190308 93.362007 -42.370071 87.484615 2.845474 83.027151 170.074333 -2.521105 179.066154 -17.610027 0.522665 3.918696 67.661958 -2.076089 2.010648 21.454555 0.003103 -0.000000 -173.761037 -0.723295 -179.212525 -20.855139 4.351117 -2.531764 72.536595 3.385649 5.214861 21.454560 -0.003117 -0.000017 6.103331 0.274392 1.350339 2.200016 0.523723 2.705537 1.882313 0.540203 2.702323 22.720117 18.090340 28.068534 4.306455 -46.242092 35.545312 -179.793105 -77.007104 -1.721415 -14.025942 60.076548 32.981423 -32.721643 -10.082267 0.965649 -0.564577 -8.976193 18.326622 -161.542990 76.894980 20.302763 -6.670539 -61.815623 -39.145160 -35.895322 14.307488 -1.338183 1.908081 8.001930 -10.268261 
169.490402 93.394836 -41.409981 87.702457 2.684793 82.934028 170.504785 -2.155695 178.727951 -17.632579 0.422167 3.980611 68.126793 -2.023100 2.286507 21.454550 0.003092 -0.000000 -173.407151 -0.154997 -178.860142 -20.826394 4.275673 -2.906980 72.213432 3.823265 5.649729 21.454562 -0.003104 -0.000018 6.035714 0.182701 1.364878 2.062679 0.341726 2.732732 1.744985 0.358373 2.730613 23.107758 17.518534 28.542867 3.601478 -46.579616 36.368459 -179.521318 -76.913039 -1.997101 -15.759239 59.817376 30.714961 -33.755877 -10.477149 1.013434 -0.290383 -10.165446 16.924638 -161.763386 77.102413 20.075418 -5.379329 -62.102088 -40.664252 -34.467744 13.796864 -1.272220 2.143981 7.244231 -10.836786 
169.800903 93.418808 -40.519459 87.870944 2.563523 82.841404 170.960263 -1.767387 178.856263 -17.602383 0.316324 3.788822 68.582585 -1.846363 2.404243 21.454551 0.003092 0.000001 -173.012175 0.354412 -178.641521 -20.705204 4.225885 -3.214948 71.867981 4.194379 6.023911 21.454560 -0.003113 -0.000016 5.965550 0.108887 1.390113 1.920669 0.195432 2.781803 1.602983 0.212362 2.780573 23.321739 17.074530 28.702220 3.175018 -46.781854 36.751158 -179.374633 -76.787090 -2.144656 -17.308779 59.655364 28.479258 -34.728828 -10.852582 1.059338 0.034769 -11.225132 15.232176 -162.043014 77.315747 19.787760 -4.342948 -62.439001 -41.739044 -32.868499 13.306553 -1.205415 2.598802 6.521998 -11.194851 
170.110107 93.432442 -39.706638 87.974783 2.463929 82.715981 171.442843 -1.410409 179.290280 -17.492900 0.200361 3.420289 69.067119 -1.585210 2.407367 21.454553 0.003093 -0.000001 -172.649547 0.786505 -178.647491 -20.587602 4.230423 -3.409453 71.487922 4.460191 6.320373 21.454560 -0.003107 -0.000021 5.895605 0.057293 1.425559 1.779535 0.093429 2.851783 1.461861 0.110780 2.851179 23.457646 16.715554 28.722144 2.812611 -46.914729 36.963457 -179.131464 -76.677691 -2.391084 -18.816232 59.583053 26.521047 -35.567069 -11.181746 1.099792 0.267428 -12.092737 13.834216 -162.569212 77.507484 19.249148 -3.465064 -62.677231 -42.607844 -31.437103 12.898564 -1.149217 3.060428 5.975619 -11.293094 
170.401703 93.431686 -38.988640 88.031569 2.353630 82.574658 171.873692 -1.122803 179.674355 -17.362324 0.104012 3.095141 69.554542 -1.361828 2.394325 21.454551 0.003090 -0.000002 -172.447687 1.130710 -178.808028 -20.643704 4.246926 -3.510485 71.109680 4.640269 6.556371 21.454557 -0.003119 -0.000015 5.824980 0.021171 1.455739 1.637400 0.022537 2.911614 1.319753 0.040245 2.911433 23.560256 16.411273 28.728288 2.409390 -47.002749 37.177300 -178.762320 -76.650917 -2.767509 -20.230493 59.595381 25.020069 -36.288870 -11.455602 1.134384 0.351251 -12.746544 13.115929 -163.172782 77.638904 18.632647 -2.790115 -62.759842 -43.311377 -30.412172 12.597059 -1.109315 3.372424 5.624899 -11.309772 
